<?xml version="1.0" encoding="UTF-8"?>
<svg xmlns="http://www.w3.org/2000/svg" xmlns:xlink="http://www.w3.org/1999/xlink" id="Group_1189" data-name="Group 1189" width="335.401" height="251" viewBox="0 0 335.401 251">
  <defs>
    <clipPath id="clip-path">
      <path id="Path_531" data-name="Path 531" d="M304.8,11.848C245.574,22.006,215.2,22.182,179.913,21.2c-12.564-.355-56.066-4.109-89.826,2.486C59.821,29.6,42.142,49.155,29.4,83.58,1.4,159.211,4.47,239.406,4.47,239.406a116.886,116.886,0,0,1,20.149-5.517c59.219-10.159,89.6-10.332,124.882-9.358,12.564.358,56.067,4.114,89.831-2.482,30.261-5.913,47.941-25.469,60.683-59.891,28-75.63,24.933-155.828,24.933-155.828A117.391,117.391,0,0,1,304.8,11.848" transform="translate(-4.371 -6.329)" fill="none"></path>
    </clipPath>
    <linearGradient id="linear-gradient" x1="-0.244" y1="1.109" x2="-0.241" y2="1.109" gradientUnits="objectBoundingBox">
      <stop offset="0" stop-color="#0a2966"></stop>
      <stop offset="0.172" stop-color="#043472"></stop>
      <stop offset="0.541" stop-color="#0060ac"></stop>
      <stop offset="0.768" stop-color="#005093"></stop>
      <stop offset="1" stop-color="#093472"></stop>
    </linearGradient>
    <clipPath id="clip-path-2">
      <path id="Path_532" data-name="Path 532" d="M304.124,13.235a118.625,118.625,0,0,0,16.52-4.186c.127,17.642-1.02,85.993-24.817,150.256-13,35.125-30.439,52.432-58.316,57.875-12.94,2.532-29.084,3.812-47.981,3.812-13.1,0-25.115-.61-33.068-1.016-3.35-.172-6.095-.311-8.082-.37-6.879-.183-15.075-.377-23.734-.377-23.231,0-51.636,1.181-101.768,9.781A117.294,117.294,0,0,0,6.367,233.2c-.133-17.644,1.017-86,24.808-150.26,13.007-35.125,30.44-52.432,58.314-57.875,12.943-2.529,29.087-3.809,47.98-3.809,13.1,0,25.12.61,33.073,1.017,3.35.169,6.094.31,8.081.364,6.879.19,15.078.385,23.734.385,23.228,0,51.64-1.184,101.768-9.785M322.583,1.619A114.834,114.834,0,0,1,303.049,6.97c-49.659,8.516-77.746,9.692-100.693,9.692-8.576,0-16.724-.194-23.552-.382-1.956-.054-4.647-.194-7.941-.36-8.012-.41-20.134-1.022-33.4-1.022-19.3,0-35.856,1.318-49.2,3.924C58.346,24.669,38.9,43.76,25.211,80.731-2.681,156.08.058,236.981.085,237.785l.172,4.458,4.159-1.619a114.9,114.9,0,0,1,19.538-5.348c49.662-8.516,77.747-9.694,100.693-9.694,6.828,0,13.875.114,23.56.382,1.948.056,4.64.2,7.93.361,8.014.408,20.138,1.025,33.393,1.025,19.3,0,35.86-1.321,49.2-3.924,29.923-5.849,49.374-24.938,63.058-61.908,27.9-75.354,25.156-156.249,25.127-157.056L326.743,0Z" transform="translate(0)" fill="none"></path>
    </clipPath>
    <linearGradient id="linear-gradient-2" x1="-0.226" y1="1.091" x2="-0.223" y2="1.091" gradientUnits="objectBoundingBox">
      <stop offset="0" stop-color="#0062ae"></stop>
      <stop offset="0.44" stop-color="#0b2f6d"></stop>
      <stop offset="0.594" stop-color="#0b3371"></stop>
      <stop offset="1" stop-color="#0058a5"></stop>
    </linearGradient>
    <clipPath id="clip-path-3">
      <path id="Path_547" data-name="Path 547" d="M176.948,122.553c-38.1,3.684-49.938,21.469-53.488,27.414-1.087,1.819-1.469,5.175,1.562,1.245,4.547-5.887,15.089-19.122,53.207-21.815,30.666-2.164,48.545.5,61.5,3.125l-1.345-5.685c-9.38-2.222-19.906-5.437-39.4-5.437-6.313,0-13.57.337-22.031,1.153" transform="translate(-122.664 -121.4)" fill="none"></path>
    </clipPath>
    <linearGradient id="linear-gradient-3" x1="-6.573" y1="2.501" x2="-6.55" y2="2.501" gradientUnits="objectBoundingBox">
      <stop offset="0" stop-color="#94af0d"></stop>
      <stop offset="0.18" stop-color="#94af0d"></stop>
      <stop offset="0.252" stop-color="#96b011"></stop>
      <stop offset="0.339" stop-color="#9cb520"></stop>
      <stop offset="0.432" stop-color="#a7bd38"></stop>
      <stop offset="0.531" stop-color="#b6c85a"></stop>
      <stop offset="0.633" stop-color="#c9d685"></stop>
      <stop offset="0.739" stop-color="#e0e8ba"></stop>
      <stop offset="0.846" stop-color="#fbfcf7"></stop>
      <stop offset="0.858" stop-color="#fff"></stop>
      <stop offset="1" stop-color="#fff"></stop>
    </linearGradient>
  </defs>
  <g id="Group_1185" data-name="Group 1185" transform="translate(0)">
    <g id="Group_1180" data-name="Group 1180">
      <path id="Path_529" data-name="Path 529" d="M20.441,257.829a117.621,117.621,0,0,1,20.15-5.519c59.218-10.156,89.6-10.329,124.881-9.353,12.563.353,56.064,4.112,89.826-2.482,30.269-5.913,47.943-25.471,60.686-59.894,28-75.629,24.932-155.829,24.932-155.829l-7.631,3.217c-64.535,12.569-100.407,12.686-137.4,11.657-12.564-.356-56.07-4.109-89.825,2.487C75.788,48.021,58.112,67.577,45.372,102c-28,75.631-24.931,155.828-24.931,155.828" transform="translate(-5.612 -6.829)" fill="#9cb80c"></path>
      <path id="Path_530" data-name="Path 530" d="M20.441,257.829a117.621,117.621,0,0,1,20.15-5.519c59.218-10.156,89.6-10.329,124.881-9.353,12.563.353,56.064,4.112,89.826-2.482,30.269-5.913,47.943-25.471,60.686-59.894,28-75.629,24.932-155.829,24.932-155.829a117.31,117.31,0,0,1-20.149,5.521c-59.222,10.157-89.6,10.33-124.882,9.355-12.564-.355-56.07-4.109-89.829,2.486C75.788,48.025,58.112,67.579,45.367,102c-28,75.63-24.925,155.827-24.925,155.827" transform="translate(-5.612 -6.829)" fill="#9cb80c"></path>
      <g id="Group_1177" data-name="Group 1177" transform="translate(3.165 4.583)">
        <g id="Group_1176" data-name="Group 1176" clip-path="url(#clip-path)">
          <rect id="Rectangle_525" data-name="Rectangle 525" width="399.394" height="365.161" transform="matrix(0.866, -0.5, 0.5, 0.866, -103.895, 58.268)" fill="url(#linear-gradient)"></rect>
        </g>
      </g>
      <g id="Group_1179" data-name="Group 1179">
        <g id="Group_1178" data-name="Group 1178" clip-path="url(#clip-path-2)">
          <rect id="Rectangle_526" data-name="Rectangle 526" width="408.961" height="375.973" transform="translate(-107.576 60.561) rotate(-30)" fill="url(#linear-gradient-2)"></rect>
        </g>
      </g>
    </g>
    <g id="Group_1183" data-name="Group 1183" transform="translate(88.822 40.976)">
      <path id="Path_533" data-name="Path 533" d="M317.608,174.92l-.617.014a5.885,5.885,0,0,1-3.441-.624c-2.58-1.275-5-4.326-9.151-11.425l-.488-.913c2.215-1.046,2.962-1.487,6.114-3.26,3.993-2.285,5.936-4.169,6.184-5.941.23-1.7-1.381-2.791-4.3-2.725-1.078.034-1.466.112-3.883.383-.563,3.054-1.191,3.7-5.91,6.782a30.91,30.91,0,0,1-7.978,4.012,8.216,8.216,0,0,0,.24-1.207c.084-.64,1.655-6.3,2.246-8.929.393-1.773.678-3.263.835-4.471.507-3.617-1.324-5.334-5.481-5.232a22.51,22.51,0,0,0-5.55.841c.2,4.091.154,5.581-.653,11.954-.5,4.253-2.033,11.324-2.388,13.387-.935,4.539-1.442,7.662-1.686,9.433-.447,3.259,1.335,4.769,5.644,4.665a19.9,19.9,0,0,0,4.845-.684c-.15-3.39.064-5.508,1.294-14.445l.23-1.7c1.286,2.366,1.471,2.718,4.428,7.378,4.332,6.951,7.3,9.283,11.455,9.186,4.072-.1,6.753-2.286,8.017-6.484" transform="translate(-166.52 -79.981)" fill="#002d79" fill-rule="evenodd"></path>
      <path id="Path_534" data-name="Path 534" d="M270.558,157.946c.364-2.623-1.083-4.353-3.541-4.29-3.23.075-6.462,2.979-10.33,9.361.255-1.275.469-2.271.547-2.833.6-4.4-.99-6.2-5.218-6.093a21.337,21.337,0,0,0-4.778.751c.593,3.517.471,7.763-.428,14.28a42.6,42.6,0,0,1-.756,4.4c-.613,3.334-1.033,5.821-1.243,7.378-.476,3.476,1.093,4.849,5.629,4.734a18.139,18.139,0,0,0,4.306-.663c-.56-2.6-.526-5.078.12-9.823.66-4.754,1.821-7.608,4.029-10.347,1.919-2.239,4.494-3.713,6.571-3.756a4.823,4.823,0,0,1,3.515,1.181l.563-1.286a14.668,14.668,0,0,0,1.016-2.992" transform="translate(-156.34 -83.367)" fill="#002d79" fill-rule="evenodd"></path>
      <path id="Path_535" data-name="Path 535" d="M221.3,173.445a107.912,107.912,0,0,1,3.4-16.964c-5.033-1.855-7.127-2.228-11.891-2.112-12.836.317-22.208,8.314-23.871,20.439-1.113,8.077,2.412,12.511,9.873,12.327a18.472,18.472,0,0,0,12.275-5.174c.349,3.6,1.645,4.763,5.254,4.675a15.692,15.692,0,0,0,6.493-1.5c-1.955-3.626-2.284-6.229-1.537-11.691m-7.642-11.824c-.9,6.527-1.4,9.083-2.573,12.57-1.463,4.492-3.91,6.737-7.374,6.82-3.689.091-5-2.631-4.178-8.584,1.06-7.729,5.413-12.635,11.33-12.776a8.312,8.312,0,0,1,3.006.416Z" transform="translate(-140.895 -83.559)" fill="#002d79" fill-rule="evenodd"></path>
      <path id="Path_536" data-name="Path 536" d="M159.237,155.851c-4.606.111-8.222,1.892-12.064,5.873.5-3.615-1.346-5.263-5.494-5.159a18.945,18.945,0,0,0-5.331.906c.862,4.852.753,7.324-.947,19.661-.823,6.024-1.453,10.069-2.04,12.624-1.09,5.182-1.751,8.308-1.888,9.3-.5,3.608,1.352,5.191,5.814,5.078a30.007,30.007,0,0,0,5.05-.54c-.076-3.322.229-7.217,1.242-15.156l.182-1.342a16.011,16.011,0,0,0,6.38.974c9.606-.239,17.764-8.341,19.231-18.979,1.151-8.367-2.673-13.422-10.135-13.242m-.709,14.634c-1.03,7.518-4.818,12.277-9.9,12.4a9.888,9.888,0,0,1-4.246-.887l.169-1.2c.165-1.207.253-2.408.4-3.476a49.609,49.609,0,0,1,1.5-7.589c1.211-4.341,4.492-7.6,7.8-7.679,3.455-.091,5.022,2.985,4.272,8.436" transform="translate(-125.073 -83.972)" fill="#002d79" fill-rule="evenodd"></path>
      <path id="Path_537" data-name="Path 537" d="M259.187,76.061c-10.857.263-18.538,6.8-19.973,16.894-1.293,9.084,4.5,14.816,14.818,14.564,10.934-.267,18.62-6.8,20.093-17.175,1.3-9.146-4.382-14.545-14.938-14.284m4.08,15.634c-1.017,7.11-3.67,10.686-8.062,10.8-4.617.111-6.287-3.289-5.225-10.741.978-6.917,3.7-10.421,8.248-10.538,4.387-.105,6.058,3.291,5.04,10.482" transform="translate(-154.769 -61.957)" fill="#002d79" fill-rule="evenodd"></path>
      <path id="Path_538" data-name="Path 538" d="M205.811,101.418c-.828-3.894-1.025-5.241-1.025-11.185L204.67,79.7c-.083-4.794-.1-7.9-.067-9.256.286-9.054.242-9.793-.831-11.458-.943-1.463-3.714-2.474-6.8-2.4a12.13,12.13,0,0,0-4.02.771c.386,1.074.5,1.343.811,2.414-1.667,2.537-2.071,3.221-4.817,7.949l-3.77,6.573-3.849,7.122-3.44,6.9-1.05,1.988-.471-2.091c-.351-1.879-.8-4.095-1.363-6.646-1.447-6.585-1.615-7.522-2.6-13.04-.969-5.579-1.415-7.324-2.426-8.851-1.072-1.6-3.19-2.354-6.51-2.277a12.9,12.9,0,0,0-5.147,1.138,8.93,8.93,0,0,1,1.017,2.544c-.157.616-.289.952-.3,1.021-.278.881-1.32,3.884-3.05,9.059l-2.87,8.306-2.965,7.905-2.915,7.57a24.518,24.518,0,0,0-1.26,4.014c-.444,3.118,1.189,4.635,4.8,4.543a14.87,14.87,0,0,0,4.017-.707,17.36,17.36,0,0,1-.32-6.95,73.231,73.231,0,0,1,3.279-12.77l2.153-6.538,1.211-3.678.7-2.244c.224,1.146.329,2.017.482,2.551.089.472.434,2.353,1.119,5.649.636,3.093,1.361,6.652,2.257,12.239,1.054,6.049,1.554,7.925,2.631,9.516,1.029,1.466,3.211,2.285,6.141,2.216a12.4,12.4,0,0,0,6.056-1.565c-.757-1.2-.866-1.467-1.487-2.532l.656-1.365,3.061-6.424c.962-1.917,3.906-7.525,6.692-12.521,1.77-3.285,2.589-4.721,4.718-8.357l-.019,2.3-.051,5.742-.2,5.741-.038,5.135-.164,6.012c-.25,5.55,1.794,7.386,7.651,7.245a10.748,10.748,0,0,0,4.484-.786" transform="translate(-129.077 -56.587)" fill="#002d79" fill-rule="evenodd"></path>
      <path id="Path_539" data-name="Path 539" d="M248.484,76.411c1.187,4.176,1.267,5.8.883,12.32a77.727,77.727,0,0,0-.148,9.7c.3,5.007,3.358,7.511,8.969,7.372,3.035-.074,4.5-.516,7.931-2.3-2.391,7.014-7.433,13.39-17.224,11.853-14.653-2.293-27.256-9.678-68.421-5.7-38.1,3.681-49.938,21.468-53.49,27.415-1.083,1.815-1.466,5.174,1.56,1.24,4.55-5.888,15.085-19.122,53.211-21.81,32.274-2.288,50.393.789,63.49,3.531,8.89,1.854,21.344.925,29.167-14.234,4.014-7.781,7.5-18.279,8.384-24.474.757-5.3-.465-6.568-6.3-6.421a18.429,18.429,0,0,0-4.03.511,26,26,0,0,1-.367,6.852,66.047,66.047,0,0,1-2.941,11.944c-1.231,3.754-3.277,5.571-6.083,5.639-3.66.087-4.319-2.883-3.039-12.946.842-6.466.821-8.5-.362-10.026-.779-1.069-2.568-1.561-5.527-1.494a16.3,16.3,0,0,0-5.659,1.02" transform="translate(-123.637 -61.64)" fill="#002d79"></path>
      <path id="Path_540" data-name="Path 540" d="M314.083,175.007l-.614.014a5.879,5.879,0,0,1-3.442-.624c-2.575-1.277-4.991-4.329-9.149-11.426l-.493-.913c2.211-1.041,2.961-1.485,6.117-3.255,3.994-2.285,5.938-4.174,6.18-5.944.233-1.7-1.377-2.791-4.294-2.72-1.08.029-1.474.108-3.888.378-.565,3.054-1.2,3.7-5.915,6.782a30.867,30.867,0,0,1-7.975,4.011,7.949,7.949,0,0,0,.24-1.2c.09-.644,1.653-6.3,2.248-8.931.4-1.781.676-3.266.838-4.471.5-3.614-1.329-5.335-5.485-5.232a22.564,22.564,0,0,0-5.552.841c.2,4.09.151,5.576-.649,11.957-.506,4.249-2.042,11.319-2.392,13.383-.933,4.541-1.436,7.66-1.681,9.434-.442,3.26,1.339,4.773,5.639,4.663a19.8,19.8,0,0,0,4.847-.681c-.147-3.385.069-5.513,1.293-14.443l.235-1.7c1.284,2.367,1.466,2.717,4.424,7.376,4.332,6.961,7.3,9.291,11.455,9.188,4.073-.1,6.75-2.282,8.014-6.483" transform="translate(-165.549 -80.005)" fill="#fff" fill-rule="evenodd"></path>
      <path id="Path_541" data-name="Path 541" d="M267.034,158.03c.356-2.626-1.09-4.353-3.548-4.3-3.224.08-6.458,2.988-10.324,9.369.251-1.278.467-2.27.54-2.836.6-4.394-.982-6.2-5.211-6.089a20.82,20.82,0,0,0-4.776.747c.593,3.522.466,7.76-.429,14.287-.211,1.485-.4,2.9-.757,4.394-.615,3.338-1.031,5.818-1.248,7.378-.476,3.474,1.1,4.852,5.631,4.734a17.906,17.906,0,0,0,4.311-.665c-.565-2.6-.529-5.08.12-9.827s1.82-7.6,4.026-10.34c1.921-2.24,4.5-3.71,6.571-3.763a4.857,4.857,0,0,1,3.514,1.181l.556-1.279a14.544,14.544,0,0,0,1.026-2.993" transform="translate(-155.366 -83.388)" fill="#fff" fill-rule="evenodd"></path>
      <path id="Path_542" data-name="Path 542" d="M217.774,173.531a107.309,107.309,0,0,1,3.412-16.965c-5.031-1.851-7.126-2.227-11.893-2.114-12.838.319-22.209,8.318-23.875,20.44-1.109,8.081,2.417,12.516,9.87,12.332a18.515,18.515,0,0,0,12.282-5.181c.343,3.6,1.644,4.768,5.254,4.679a15.685,15.685,0,0,0,6.49-1.5c-1.955-3.628-2.284-6.23-1.54-11.691m-7.639-11.821c-.9,6.524-1.4,9.076-2.568,12.566-1.463,4.489-3.912,6.738-7.374,6.821-3.692.093-5-2.631-4.183-8.591,1.06-7.721,5.414-12.633,11.335-12.776a8.311,8.311,0,0,1,3,.421Z" transform="translate(-139.922 -83.582)" fill="#fff" fill-rule="evenodd"></path>
      <path id="Path_543" data-name="Path 543" d="M155.716,155.938c-4.613.117-8.229,1.894-12.067,5.873.5-3.613-1.346-5.266-5.495-5.16a18.939,18.939,0,0,0-5.335.907c.862,4.852.755,7.324-.944,19.657-.82,6.026-1.455,10.073-2.035,12.626-1.095,5.185-1.757,8.308-1.892,9.3-.5,3.613,1.355,5.193,5.814,5.079a29.751,29.751,0,0,0,5.047-.541c-.075-3.318.231-7.217,1.24-15.151l.188-1.349a15.913,15.913,0,0,0,6.379.975c9.608-.234,17.763-8.345,19.228-18.978,1.151-8.363-2.667-13.425-10.129-13.241M155,170.577c-1.028,7.513-4.824,12.272-9.9,12.392a10,10,0,0,1-4.25-.885l.172-1.2c.167-1.2.255-2.411.4-3.474a49.414,49.414,0,0,1,1.5-7.6c1.211-4.34,4.492-7.594,7.793-7.674,3.461-.09,5.033,2.985,4.281,8.441" transform="translate(-124.1 -83.996)" fill="#fff" fill-rule="evenodd"></path>
      <path id="Path_544" data-name="Path 544" d="M255.657,76.142c-10.862.268-18.537,6.807-19.975,16.9-1.289,9.083,4.5,14.817,14.823,14.567,10.936-.276,18.617-6.806,20.093-17.174,1.3-9.15-4.382-14.55-14.941-14.292m4.077,15.639c-1.009,7.116-3.666,10.692-8.057,10.8-4.623.115-6.287-3.294-5.227-10.744.977-6.916,3.708-10.423,8.252-10.537,4.382-.106,6.055,3.3,5.032,10.483" transform="translate(-153.795 -61.98)" fill="#fff" fill-rule="evenodd"></path>
      <path id="Path_545" data-name="Path 545" d="M202.284,101.507c-.829-3.9-1.02-5.244-1.02-11.188l-.117-10.531c-.09-4.793-.111-7.9-.072-9.25.291-9.055.238-9.8-.826-11.461-.944-1.461-3.72-2.471-6.8-2.393a11.841,11.841,0,0,0-4.029.773c.386,1.067.5,1.336.813,2.409-1.668,2.538-2.071,3.223-4.82,7.952l-3.77,6.574-3.847,7.12-3.437,6.9L173.309,90.4l-.475-2.085q-.514-2.819-1.355-6.648c-1.442-6.584-1.615-7.524-2.6-13.039-.973-5.586-1.419-7.324-2.432-8.856-1.077-1.6-3.2-2.35-6.509-2.274a12.961,12.961,0,0,0-5.15,1.142,8.793,8.793,0,0,1,1.024,2.538c-.164.617-.292.954-.3,1.022-.28.883-1.318,3.883-3.046,9.059L149.6,79.565l-2.963,7.907-2.92,7.569a24.9,24.9,0,0,0-1.264,4.016c-.444,3.118,1.185,4.629,4.809,4.542a14.886,14.886,0,0,0,4.012-.707,17.382,17.382,0,0,1-.317-6.95,73,73,0,0,1,3.275-12.773l2.156-6.538,1.209-3.674.7-2.245c.224,1.139.324,2.016.482,2.547.087.472.434,2.359,1.117,5.653.635,3.091,1.357,6.648,2.254,12.235,1.062,6.051,1.562,7.928,2.637,9.521,1.025,1.461,3.213,2.28,6.133,2.206a12.227,12.227,0,0,0,6.06-1.561c-.751-1.193-.868-1.461-1.482-2.529l.651-1.366,3.064-6.427c.961-1.913,3.907-7.521,6.684-12.523,1.776-3.283,2.6-4.718,4.722-8.349l-.015,2.3-.054,5.742-.2,5.741-.038,5.135-.168,6.013c-.248,5.551,1.8,7.387,7.653,7.244a10.806,10.806,0,0,0,4.482-.784" transform="translate(-128.103 -56.613)" fill="#fff" fill-rule="evenodd"></path>
      <path id="Path_546" data-name="Path 546" d="M244.96,76.5c1.189,4.174,1.267,5.8.878,12.32a77.693,77.693,0,0,0-.144,9.7c.3,5.015,3.357,7.517,8.969,7.382,3.036-.077,4.494-.522,7.935-2.3-2.395,7.01-7.442,13.388-17.227,11.857-14.655-2.3-27.261-9.68-68.423-5.705-38.1,3.683-49.938,21.468-53.488,27.413-1.087,1.819-1.469,5.175,1.562,1.245,4.547-5.885,15.089-19.122,53.207-21.815,32.276-2.28,50.39.79,63.49,3.533,8.89,1.857,21.351.927,29.169-14.232,4.016-7.778,7.5-18.277,8.385-24.471.755-5.308-.462-6.568-6.306-6.424a18.671,18.671,0,0,0-4.029.51,26.267,26.267,0,0,1-.361,6.854,66.966,66.966,0,0,1-2.946,11.94c-1.233,3.759-3.282,5.574-6.085,5.64-3.66.088-4.325-2.879-3.043-12.947.846-6.462.825-8.492-.354-10.023-.783-1.07-2.571-1.568-5.532-1.495a16.329,16.329,0,0,0-5.657,1.02" transform="translate(-122.664 -61.664)" fill="#fff"></path>
      <g id="Group_1182" data-name="Group 1182" transform="translate(0 46.932)">
        <g id="Group_1181" data-name="Group 1181" clip-path="url(#clip-path-3)">
          <rect id="Rectangle_527" data-name="Rectangle 527" width="39.541" height="119.262" transform="translate(-2.343 33.66) rotate(-87.157)" fill="url(#linear-gradient-3)"></rect>
        </g>
      </g>
    </g>
    <path id="Path_548" data-name="Path 548" d="M90.815,234.309H96c2.807,0,5.639,1.056,5.639,4.176a3.84,3.84,0,0,1-2.975,3.84v.049a4.15,4.15,0,0,1,3.84,4.176c0,3.744-3.48,4.752-6.624,4.752H90.815Zm2.016,7.2h2.784c1.9,0,3.864-.408,3.864-2.76,0-2.088-1.824-2.568-3.647-2.568h-3Zm0,7.92h3.408c1.968,0,4.1-.791,4.1-2.952,0-2.376-2.016-3.1-4.056-3.1H92.831Z" transform="translate(-25.055 -64.643)" fill="#fff"></path>
    <g id="Group_1184" data-name="Group 1184" transform="translate(82.798 169.235)">
      <path id="Path_549" data-name="Path 549" d="M114.344,234.309h10.68v1.872H116.36v5.329h8.088v1.872H116.36v6.048h9.1V251.3H114.344Z" transform="translate(-114.344 -233.877)" fill="#fff"></path>
      <path id="Path_550" data-name="Path 550" d="M137.315,234.309h10.68v1.872h-8.664v5.329h8.088v1.872h-8.088v6.048h9.1V251.3H137.315Z" transform="translate(-120.681 -233.877)" fill="#fff"></path>
      <path id="Path_551" data-name="Path 551" d="M160.288,234.309h10.536v1.872H162.3V241.8h7.92v1.872H162.3V251.3h-2.015Z" transform="translate(-127.019 -233.877)" fill="#fff"></path>
      <path id="Path_552" data-name="Path 552" d="M193.205,242.641a8.88,8.88,0,1,1,8.879,8.928A8.625,8.625,0,0,1,193.205,242.641Zm15.6,0a6.728,6.728,0,1,0-6.721,7.056A6.716,6.716,0,0,0,208.8,242.641Z" transform="translate(-136.101 -233.713)" fill="#fff"></path>
      <path id="Path_553" data-name="Path 553" d="M225.525,234.309h4.345c3.288,0,6.768.481,6.768,4.681,0,2.471-1.608,4.08-4.248,4.488l4.824,7.823h-2.473l-4.608-7.632h-2.592V251.3h-2.016Zm2.016,7.488h1.8c2.232,0,5.136,0,5.136-2.807,0-2.449-2.136-2.809-4.1-2.809h-2.832Z" transform="translate(-145.017 -233.877)" fill="#fff"></path>
      <path id="Path_554" data-name="Path 554" d="M249.094,234.309h2.017v15.12h7.775V251.3h-9.792Z" transform="translate(-151.52 -233.877)" fill="#fff"></path>
      <path id="Path_555" data-name="Path 555" d="M268.984,234.309h10.681v1.872H271v5.329h8.087v1.872H271v6.048h9.1V251.3H268.984Z" transform="translate(-157.007 -233.877)" fill="#fff"></path>
      <path id="Path_556" data-name="Path 556" d="M296.726,234.309h1.9l7.225,16.992h-2.353l-1.728-4.176h-8.5l-1.752,4.176h-2.28Zm.912,2.592h-.048l-3.528,8.352H301Z" transform="translate(-162.595 -233.877)" fill="#fff"></path>
      <path id="Path_557" data-name="Path 557" d="M318.607,234.309h2.544l9.84,14.112h.048V234.309h2.016V251.3h-2.544l-9.841-14.112h-.047V251.3h-2.017Z" transform="translate(-170.698 -233.877)" fill="#fff"></path>
      <path id="Path_558" data-name="Path 558" d="M355.32,237.145a3.531,3.531,0,0,0-3.1-1.56c-1.777,0-3.625.84-3.625,2.856,0,1.56.864,2.256,3.576,3.12,2.639.839,5.088,1.7,5.088,5.04,0,3.384-2.9,4.968-5.975,4.968a6.161,6.161,0,0,1-5.232-2.353l1.728-1.415a4.117,4.117,0,0,0,3.624,1.9c1.728,0,3.7-1.008,3.7-2.952,0-2.088-1.416-2.448-4.441-3.456-2.4-.792-4.223-1.847-4.223-4.68,0-3.264,2.807-4.9,5.784-4.9a5.83,5.83,0,0,1,4.752,1.991Z" transform="translate(-178.27 -233.713)" fill="#fff"></path>
    </g>
  </g>
</svg>
